# xmcd
#
# Track frame offsets: 
#        150
#        15985
#        32451
#        53470
#        64011
#        79696
#        92708
#        106857
#        120142
#        132608
#        154443
#        166434
#        174757
#        186790
#
# Disc length: 2725 seconds
#
# Revision: 0
# Processed by: cddbd v1.5.2PL0 Copyright (c) Steve Scherf et al.
# Submitted via: ExactAudioCopy v1.0b4
#
DISCID=9e0aa30e
DTITLE=St. Anthony of Padua Gospel Choir - The Lord is my Light
DYEAR=2014
DGENRE=Gospel
TTITLE0=The Lord is my Light
TTITLE1=Where Could I go
TTITLE2=I can't even Walk
TTITLE3=Lord Keep me Day by Day
TTITLE4=Order my Steps
TTITLE5=Please Be Patient with Me
TTITLE6=I don't feel no Ways Tired
TTITLE7=Hush
TTITLE8=Let There Be Peace on Earth
TTITLE9=His Eyes on the Sparrow
TTITLE10=Just a Little Talk with Jesus
TTITLE11=Leaning on the Evelasting Arms
TTITLE12=I'm Free
TTITLE13=God Is
EXTD=
EXTT0=
EXTT1=
EXTT2=
EXTT3=
EXTT4=
EXTT5=
EXTT6=
EXTT7=
EXTT8=
EXTT9=
EXTT10=
EXTT11=
EXTT12=
EXTT13=
PLAYORDER=
